# File created by Blade
# Date/Time:  Wed Jan 21 17:47:32 2015
# Frame Rate: 120.000 fps
#------------------------------------------------------
:FULLY-SPECIFIED
:DEGREES
830
root 15.845298 31.415097 -19.708167 -108.571217 74.059483 -170.236634
Spine 73.019615 -27.769205 -29.762935
Head -16.809132 -49.115087 52.904016
LeftShoulder 28.922962 -44.178823 20.314341
LeftArm 28.349844 19.631120 -5.186991
LeftForeArm 15.335224 -0.000000 -0.714159
LeftHand 2.875456 0.000000 8.095070
LeftHandThumb1 -26.253704 0.000000 33.147579
RightShoulder -18.345378 -16.368607 0.422528
RightArm -40.159591 36.993186 26.460603
RightForeArm 2.707936 0.000000 6.992742
RightHand -19.115538 0.000000 -18.697609
RightHandThumb1 -24.326973 -0.000000 -32.862282
LeftUpLeg -35.888915 26.246478 -17.541655
LeftLeg -3.204497 -0.000000 0.000000
LeftFoot -39.939461 18.684569 -24.615659
LeftToeBase 26.235200 -0.000000 -0.000000
RightUpLeg -87.825672 2.542505 7.185880
RightLeg -5.227566 -0.000000 0.000000
RightFoot 14.772530 -23.026858 4.279081
RightToeBase 26.440258 -0.000000 -0.000000
831
root 15.856917 31.416348 -19.709682 -108.485278 74.099018 -170.078643
Spine 73.153586 -27.804384 -30.009650
Head -16.178177 -49.679803 52.544633
LeftShoulder 28.682996 -43.932900 20.468717
LeftArm 28.140839 19.592905 -5.042421
LeftForeArm 15.007954 -0.000000 -0.699884
LeftHand 3.207443 -0.000000 8.236070
LeftHandThumb1 -26.253704 0.000000 33.147579
RightShoulder -18.473940 -16.504626 0.308222
RightArm -40.076234 36.893497 26.474203
RightForeArm 2.873977 -0.000000 6.898948
RightHand -19.171966 0.000000 -18.391820
RightHandThumb1 -24.326973 -0.000000 -32.862282
LeftUpLeg -35.704196 26.446546 -17.618860
LeftLeg -3.499218 -0.000000 0.000000
LeftFoot -39.680072 18.543422 -24.745855
LeftToeBase 26.016347 -0.000000 -0.000000
RightUpLeg -87.742371 2.621164 7.176314
RightLeg -5.240240 -0.000000 0.000000
RightFoot 14.811672 -23.190696 4.159312
RightToeBase 26.345397 -0.000000 -0.000000
832
root 15.869153 31.417795 -19.709418 -108.432690 74.120435 -169.966549
Spine 73.282387 -27.846990 -30.230536
Head -15.608857 -50.236672 52.238871
LeftShoulder 28.531026 -43.734275 20.597744
LeftArm 27.814234 19.320603 -5.068601
LeftForeArm 14.913927 -0.000000 -0.734861
LeftHand 3.737322 -0.000000 8.300271
LeftHandThumb1 -26.253704 0.000000 33.147579
RightShoulder -18.602196 -16.610800 0.229715
RightArm -40.067390 36.841411 26.358068
RightForeArm 2.821016 -0.000000 6.770173
RightHand -19.091089 -0.000000 -18.548164
RightHandThumb1 -24.326973 -0.000000 -32.862282
LeftUpLeg -35.529159 26.603139 -17.666690
LeftLeg -3.768229 -0.000000 0.000000
LeftFoot -39.442288 18.435195 -24.863755
LeftToeBase 25.860027 -0.000000 -0.000000
RightUpLeg -87.685234 2.693165 7.178854
RightLeg -5.225688 -0.000000 0.000000
RightFoot 14.868726 -23.357246 3.993275
RightToeBase 26.228137 -0.000000 -0.000000
833
root 15.880854 31.418935 -19.708540 -108.463699 74.144121 -169.972918
Spine 73.411283 -27.939876 -30.490099
Head -15.068074 -50.703970 51.943660
LeftShoulder 28.368590 -43.611195 20.702840
LeftArm 27.433640 19.182218 -5.097979
LeftForeArm 14.933465 -0.000000 -0.622519
LeftHand 4.077397 0.000000 8.393344
LeftHandThumb1 -26.253704 0.000000 33.147579
RightShoulder -18.726905 -16.781461 0.202119
RightArm -40.082578 36.917988 26.164009
RightForeArm 2.774955 -0.000000 6.772112
RightHand -19.097983 0.000000 -18.577365
RightHandThumb1 -24.326973 -0.000000 -32.862282
LeftUpLeg -35.393179 26.713586 -17.743124
LeftLeg -4.029178 -0.000000 0.000000
LeftFoot -39.235092 18.354480 -24.999266
LeftToeBase 25.747127 -0.000000 -0.000000
RightUpLeg -87.676283 2.740961 7.157451
RightLeg -5.192954 -0.000000 0.000000
RightFoot 14.913629 -23.502680 3.729212
RightToeBase 26.196258 -0.000000 -0.000000
834
root 15.894751 31.419363 -19.705406 -108.471498 74.161405 -169.982356
Spine 73.502438 -28.044925 -30.705144
Head -14.565805 -51.160229 51.689810
LeftShoulder 28.258504 -43.558046 20.702838
LeftArm 27.136502 19.210421 -5.035615
LeftForeArm 14.861910 -0.000000 -0.594197
LeftHand 4.556121 -0.000000 8.442623
LeftHandThumb1 -26.253704 0.000000 33.147579
RightShoulder -18.829872 -16.852089 0.158374
RightArm -40.149894 36.802335 25.985366
RightForeArm 2.911120 -0.000000 6.747592
RightHand -19.122613 -0.000000 -18.546206
RightHandThumb1 -24.326973 -0.000000 -32.862282
LeftUpLeg -35.286781 26.809638 -17.823680
LeftLeg -4.282292 -0.000000 0.000000
LeftFoot -39.039702 18.314490 -25.070389
LeftToeBase 25.691508 -0.000000 -0.000000
RightUpLeg -87.690245 2.788492 7.157321
RightLeg -5.154653 -0.000000 0.000000
RightFoot 14.933318 -23.618423 3.609153
RightToeBase 25.968849 -0.000000 -0.000000
835
root 15.905632 31.419300 -19.700578 -108.510442 74.169856 -170.067239
Spine 73.557659 -28.201608 -30.904792
Head -14.098609 -51.596349 51.425729
LeftShoulder 28.081467 -43.443947 20.758003
LeftArm 26.909091 19.194780 -4.962468
LeftForeArm 14.628534 -0.000000 -0.542683
LeftHand 4.825480 -0.000000 8.289161
LeftHandThumb1 -26.253704 0.000000 33.147579
RightShoulder -18.931574 -17.013105 0.151468
RightArm -40.306768 36.897526 25.683313
RightForeArm 2.800860 -0.000000 6.848477
RightHand -19.170006 -0.000000 -18.522958
RightHandThumb1 -24.326973 -0.000000 -32.862282
LeftUpLeg -35.240655 26.835111 -17.898207
LeftLeg -4.486288 -0.000000 0.000000
LeftFoot -38.896462 18.330525 -25.156621
LeftToeBase 25.638096 -0.000000 -0.000000
RightUpLeg -87.749425 2.816789 7.136159
RightLeg -5.125372 -0.000000 0.000000
RightFoot 14.965486 -23.709446 3.232181
RightToeBase 26.093532 -0.000000 -0.000000
836
root 15.917306 31.419029 -19.693359 -108.564021 74.166607 -170.171597
Spine 73.612803 -28.360968 -31.096497
Head -13.680388 -51.998978 51.218350
LeftShoulder 27.941699 -43.373661 20.820269
LeftArm 26.597816 19.143365 -4.989001
LeftForeArm 14.554043 -0.000000 -0.484712
LeftHand 5.192499 -0.000000 8.332417
LeftHandThumb1 -26.253704 0.000000 33.147579
RightShoulder -18.995040 -17.068753 0.082942
RightArm -40.397443 36.707865 25.541478
RightForeArm 2.949288 -0.000000 6.834373
RightHand -19.006863 -0.000000 -18.568496
RightHandThumb1 -24.326973 -0.000000 -32.862282
LeftUpLeg -35.208911 26.816516 -17.930092
LeftLeg -4.638707 -0.000000 0.000000
LeftFoot -38.797890 18.366418 -25.249918
LeftToeBase 25.616495 -0.000000 -0.000000
RightUpLeg -87.813987 2.840354 7.152329
RightLeg -5.084714 -0.000000 0.000000
RightFoot 14.936286 -23.788428 3.058733
RightToeBase 26.099151 -0.000000 -0.000000
837
root 15.929626 31.418544 -19.684840 -108.567220 74.150858 -170.221477
Spine 73.678961 -28.497547 -31.272879
Head -13.325722 -52.395401 51.057485
LeftShoulder 27.796157 -43.324228 20.933224
LeftArm 26.300618 19.098531 -5.061160
LeftForeArm 14.503903 -0.000000 -0.502368
LeftHand 5.589635 -0.000000 8.446722
LeftHandThumb1 -26.253704 0.000000 33.147579
RightShoulder -19.075739 -17.172248 0.026996
RightArm -40.385451 36.553096 25.472903
RightForeArm 3.151921 -0.000000 6.784647
RightHand -19.015852 -0.000000 -18.403917
RightHandThumb1 -24.326973 -0.000000 -32.862282
LeftUpLeg -35.202471 26.815690 -17.948744
LeftLeg -4.754008 -0.000000 0.000000
LeftFoot -38.727937 18.437833 -25.301184
LeftToeBase 25.600515 -0.000000 -0.000000
RightUpLeg -87.860871 2.869591 7.191685
RightLeg -5.063428 -0.000000 0.000000
RightFoot 14.922005 -23.828770 2.888943
RightToeBase 26.048388 -0.000000 -0.000000
